<svg xmlns="http://www.w3.org/2000/svg" viewBox="0 0 64 64">
  <!-- Antenna -->
  <line x1="32" y1="8" x2="32" y2="2" stroke="#3D3428" stroke-width="2" stroke-linecap="round"/>
  <circle cx="32" cy="2" r="2.5" fill="#C0653A"/>
  <!-- Chef's hat -->
  <ellipse cx="32" cy="12" rx="16" ry="8" fill="#FBF7F0" stroke="#E0D5C4" stroke-width="1"/>
  <rect x="18" y="12" width="28" height="12" fill="#FBF7F0" stroke="#E0D5C4" stroke-width="1"/>
  <line x1="25" y1="12" x2="25" y2="24" stroke="#E0D5C4" stroke-width="0.8"/>
  <line x1="32" y1="12" x2="32" y2="24" stroke="#E0D5C4" stroke-width="0.8"/>
  <line x1="39" y1="12" x2="39" y2="24" stroke="#E0D5C4" stroke-width="0.8"/>
  <rect x="16" y="22" width="32" height="4" rx="1" fill="#C0653A"/>
  <!-- Robot head -->
  <rect x="14" y="26" width="36" height="32" rx="6" fill="#3D3428"/>
  <!-- Eyes -->
  <rect x="20" y="34" width="8" height="8" rx="2" fill="#FBF7F0"/>
  <rect x="36" y="34" width="8" height="8" rx="2" fill="#FBF7F0"/>
  <!-- Pupils -->
  <rect x="23" y="36" width="3" height="4" rx="1" fill="#C0653A"/>
  <rect x="39" y="36" width="3" height="4" rx="1" fill="#C0653A"/>
  <!-- Mouth -->
  <rect x="24" y="48" width="16" height="3" rx="1.5" fill="#C0653A"/>
  <!-- Bolts -->
  <circle cx="17" cy="41" r="2" fill="#8C7E6D"/>
  <circle cx="47" cy="41" r="2" fill="#8C7E6D"/>
</svg>
